<?xml version="1.0" encoding="UTF-8"?>
<!DOCTYPE svg PUBLIC "-//W3C//DTD SVG 1.1//EN" "http://www.w3.org/Graphics/SVG/1.1/DTD/svg11.dtd">
<!-- Creator: CorelDRAW X6 -->
<svg xmlns="http://www.w3.org/2000/svg" xml:space="preserve" width="13.2292mm" height="13.2292mm" version="1.1" style="shape-rendering:geometricPrecision; text-rendering:geometricPrecision; image-rendering:optimizeQuality; fill-rule:evenodd; clip-rule:evenodd"
viewBox="0 0 1323 1323"
 xmlns:xlink="http://www.w3.org/1999/xlink">
 <defs>
  <style type="text/css">
   <![CDATA[
    .str0 {stroke:#F9FFA9;stroke-width:20}
    .fil0 {fill:#F9FFA9}
   ]]>
  </style>
 </defs>
 <g id="Слой_x0020_1">
  <metadata id="CorelCorpID_0Corel-Layer"/>
  <path class="fil0 str0" d="M152 567l741 0c31,-45 82,-75 139,-76 93,-2 169,77 169,172 0,95 -76,172 -169,172 -111,0 -148,-90 -149,-90l-112 2 -85 -52 -118 34 -85 -34 -85 52 -102 -34 -58 33 -86 -59c-14,-20 -47,-62 -32,-81l30 -38zm907 -25c33,0 59,27 59,60 0,33 -27,60 -59,60 -33,0 -59,-27 -59,-60 0,-33 27,-60 59,-60z"/>
 </g>
</svg>
